<?xml version="1.0" encoding="UTF-8"?>
<svg width="56px" height="56px" viewBox="0 0 56 56" version="1.1" xmlns="http://www.w3.org/2000/svg" xmlns:xlink="http://www.w3.org/1999/xlink">
    <title>installment</title>
    <defs>
        <linearGradient x1="13.75%" y1="16.25%" x2="85%" y2="86.25%" id="linearGradient-1">
            <stop stop-color="#FFC100" offset="0%"></stop>
            <stop stop-color="#E1A100" offset="100%"></stop>
        </linearGradient>
    </defs>
    <g id="map" stroke="none" stroke-width="1" fill="none" fill-rule="evenodd">
        <g id="installment" fill-rule="nonzero">
            <path d="M28,56 C43.463973,56 56,43.463973 56,28 C56,12.536027 43.463973,0 28,0 C12.536027,0 0,12.536027 0,28 C0,43.463973 12.536027,56 28,56 Z" id="Oval" fill="url(#linearGradient-1)"></path>
            <path d="M22.8055555,39.384 C29.3015555,39.384 31.4135555,34.072 31.4135555,27.512 C31.4135555,20.952 29.3015555,15.736 22.8055555,15.736 C16.3095555,15.736 14.1975555,20.952 14.1975555,27.512 C14.1975555,34.072 16.3095555,39.384 22.8055555,39.384 Z M22.8055555,34.264 C20.5975555,34.264 19.9575555,31.256 19.9575555,27.512 C19.9575555,23.8 20.5975555,20.856 22.8055555,20.856 C25.0135555,20.856 25.6535555,23.8 25.6535555,27.512 C25.6535555,31.256 25.0135555,34.264 22.8055555,34.264 Z" id="0" fill="#008060"></path>
            <path d="M35.3617778,21.913 C36.9617778,21.913 38.2577778,20.697 38.2577778,19.161 C38.2577778,17.657 36.9617778,16.393 35.3617778,16.393 C33.7457778,16.393 32.4657778,17.657 32.4657778,19.161 C32.4657778,20.697 33.7457778,21.913 35.3617778,21.913 Z M35.5377778,28.025 L44.3697778,16.585 L41.9377778,16.585 L33.1057778,28.025 L35.5377778,28.025 Z M35.3617778,19.993 C34.8817778,19.993 34.4817778,19.625 34.4817778,19.145 C34.4817778,18.697 34.8817778,18.313 35.3617778,18.313 C35.8417778,18.313 36.2417778,18.697 36.2417778,19.145 C36.2417778,19.625 35.8417778,19.993 35.3617778,19.993 Z M42.1937778,28.217 C43.7937778,28.217 45.0897778,27.001 45.0897778,25.465 C45.0897778,23.961 43.7937778,22.697 42.1937778,22.697 C40.5777778,22.697 39.2977778,23.961 39.2977778,25.465 C39.2977778,27.001 40.5777778,28.217 42.1937778,28.217 Z M42.1937778,26.297 C41.7137778,26.297 41.3137778,25.929 41.3137778,25.449 C41.3137778,25.001 41.7137778,24.617 42.1937778,24.617 C42.6737778,24.617 43.0737778,25.001 43.0737778,25.449 C43.0737778,25.929 42.6737778,26.297 42.1937778,26.297 Z" id="%" fill="#008060"></path>
        </g>
    </g>
</svg>