<?xml version="1.0" encoding="UTF-8"?>
<!DOCTYPE svg PUBLIC "-//W3C//DTD SVG 1.1//EN" "http://www.w3.org/Graphics/SVG/1.1/DTD/svg11.dtd">
<!-- Creator: CorelDRAW 2018 (64-Bit) -->
<svg xmlns="http://www.w3.org/2000/svg" xml:space="preserve" width="50px" height="50px" version="1.1" style="shape-rendering:geometricPrecision; text-rendering:geometricPrecision; image-rendering:optimizeQuality; fill-rule:evenodd; clip-rule:evenodd"
viewBox="0 0 4.45 4.45"
 xmlns:xlink="http://www.w3.org/1999/xlink">
 <defs>
  <style type="text/css">
   <![CDATA[
    .fil1 {fill:#008060}
    .fil2 {fill:#008060;fill-rule:nonzero}
    .fil0 {fill:url(#id0)}
   ]]>
  </style>
  <linearGradient id="id0" gradientUnits="userSpaceOnUse" x1="0.61" y1="0.61" x2="3.78" y2="3.73">
   <stop offset="0" style="stop-opacity:1; stop-color:#FFC100"/>
   <stop offset="1" style="stop-opacity:1; stop-color:#E1A100"/>
  </linearGradient>
 </defs>
 <g id="Слой_x0020_1">
  <metadata id="CorelCorpID_0Corel-Layer"/>
  <path id="Oval" class="fil0" d="M2.23 4.45c1.22,0 2.22,-1 2.22,-2.22 0,-1.23 -1,-2.23 -2.22,-2.23 -1.23,0 -2.23,1 -2.23,2.23 0,1.22 1,2.22 2.23,2.22z"/>
  <g id="_1175835979248">
   <path id="_25" class="fil1" d="M2.6 1.76c0.12,0 0.23,-0.1 0.23,-0.22 0,-0.12 -0.11,-0.22 -0.23,-0.22 -0.13,0 -0.23,0.1 -0.23,0.22 0,0.12 0.1,0.22 0.23,0.22zm0.01 0.49l0.7 -0.91 -0.19 0 -0.7 0.91 0.19 0zm-0.01 -0.64c-0.04,0 -0.07,-0.03 -0.07,-0.07 0,-0.03 0.03,-0.06 0.07,-0.06 0.03,0 0.07,0.03 0.07,0.06 0,0.04 -0.04,0.07 -0.07,0.07zm0.54 0.65c0.13,0 0.23,-0.09 0.23,-0.22 0,-0.12 -0.1,-0.22 -0.23,-0.22 -0.13,0 -0.23,0.1 -0.23,0.22 0,0.13 0.1,0.22 0.23,0.22zm0 -0.15c-0.04,0 -0.07,-0.03 -0.07,-0.07 0,-0.03 0.03,-0.06 0.07,-0.06 0.04,0 0.07,0.03 0.07,0.06 0,0.04 -0.03,0.07 -0.07,0.07z"/>
   <path class="fil2" d="M1.08 2.91c0.17,0.16 0.4,0.24 0.62,0.24 0.4,0 0.68,-0.27 0.68,-0.65 0,-0.33 -0.22,-0.6 -0.65,-0.6 -0.04,0 -0.12,0.01 -0.14,0.02l0 0c0,0 0.01,-0.03 0.01,-0.07l0.01 -0.17 0.63 0 0 -0.38 -1.02 0 -0.07 0.95 0.24 0.09c0.07,-0.04 0.16,-0.06 0.24,-0.06 0.16,0 0.29,0.08 0.29,0.23 0,0.15 -0.14,0.22 -0.25,0.22 -0.14,0 -0.28,-0.08 -0.37,-0.16l-0.22 0.34 0 0z"/>
  </g>
 </g>
</svg>
